<svg width="384" height="200" viewBox="0 0 384 200" fill="none" xmlns="http://www.w3.org/2000/svg">
<rect width="200" height="200" rx="40" fill="#082C6A"/>
<path d="M74.3644 55.4077L76.1652 82.2361C73.6641 82.6947 71.4132 83.6807 69.4124 85.1941C67.3615 86.7075 65.7358 88.7024 64.5353 91.1789C63.2848 93.6095 62.6595 96.5216 62.6595 99.9153C62.6595 104.455 63.71 108.285 65.8108 111.403C67.8617 114.522 70.6129 116.081 74.0643 116.081C76.8155 116.081 79.1414 115.072 81.0422 113.054C82.943 111.036 84.4687 107.574 85.6192 102.667L89.8209 83.5431C92.1219 73.2703 95.8234 65.6116 100.926 60.567C106.028 55.5223 112.731 53 121.034 53C128.587 53 135.215 55.0408 140.917 59.1224C146.62 63.1581 151.072 68.7072 154.273 75.7697C157.424 82.7864 159 90.8808 159 100.053C159 114.04 155.824 125.184 149.471 133.485C143.068 141.74 134.365 146.578 123.36 148L121.709 119.177C126.361 118.305 129.913 116.196 132.364 112.848C134.765 109.5 135.965 105.212 135.965 99.9841C135.965 94.8477 134.89 90.7203 132.739 87.6017C130.538 84.4374 127.712 82.8323 124.26 82.7864C121.359 82.8323 118.983 83.9558 117.132 86.1571C115.232 88.3584 113.781 91.7521 112.781 96.3382L108.804 114.636C106.553 124.955 102.651 132.637 97.099 137.681C91.5467 142.68 84.4687 145.18 75.8651 145.18C68.462 145.18 62.0843 143.345 56.732 139.676C51.3798 135.962 47.253 130.756 44.3518 124.061C41.4506 117.319 40 109.431 40 100.397C40 87.0514 43.0763 76.5494 49.2289 68.8907C55.3815 61.1861 63.76 56.6918 74.3644 55.4077Z" fill="white"/>
<path d="M238.394 33.3118C238.286 32.2232 237.823 31.3776 237.004 30.7749C236.186 30.1721 235.075 29.8707 233.671 29.8707C232.718 29.8707 231.912 30.0057 231.256 30.2756C230.599 30.5365 230.095 30.9008 229.744 31.3686C229.402 31.8364 229.232 32.3672 229.232 32.9609C229.214 33.4557 229.317 33.8875 229.542 34.2564C229.776 34.6252 230.095 34.9446 230.5 35.2145C230.905 35.4754 231.373 35.7048 231.903 35.9027C232.434 36.0916 233.001 36.2536 233.604 36.3885L236.087 36.9822C237.292 37.2521 238.399 37.612 239.406 38.0618C240.414 38.5116 241.286 39.0649 242.024 39.7216C242.762 40.3783 243.333 41.152 243.738 42.0426C244.152 42.9332 244.363 43.9543 244.372 45.1058C244.363 46.7971 243.931 48.2635 243.077 49.505C242.231 50.7375 241.008 51.6955 239.406 52.3793C237.814 53.054 235.893 53.3913 233.644 53.3913C231.413 53.3913 229.47 53.0495 227.815 52.3658C226.168 51.6821 224.882 50.67 223.955 49.3295C223.038 47.9801 222.556 46.3113 222.511 44.3232H228.165C228.228 45.2498 228.494 46.0234 228.962 46.6442C229.438 47.2559 230.073 47.7192 230.864 48.0341C231.665 48.34 232.569 48.4929 233.577 48.4929C234.566 48.4929 235.425 48.349 236.154 48.0611C236.892 47.7732 237.463 47.3729 237.868 46.8601C238.273 46.3473 238.475 45.758 238.475 45.0923C238.475 44.4716 238.291 43.9498 237.922 43.527C237.562 43.1042 237.031 42.7443 236.33 42.4474C235.637 42.1506 234.787 41.8807 233.779 41.6378L230.77 40.8821C228.44 40.3153 226.6 39.4292 225.251 38.2237C223.901 37.0182 223.231 35.3944 223.24 33.3523C223.231 31.679 223.676 30.2171 224.576 28.9666C225.485 27.7161 226.731 26.7401 228.314 26.0384C229.897 25.3366 231.696 24.9858 233.712 24.9858C235.763 24.9858 237.553 25.3366 239.082 26.0384C240.621 26.7401 241.817 27.7161 242.672 28.9666C243.527 30.2171 243.967 31.6655 243.994 33.3118H238.394ZM252.435 53H246.174L255.714 25.3636H263.244L272.771 53H266.51L259.587 31.679H259.371L252.435 53ZM252.044 42.1371H266.833V46.6982H252.044V42.1371ZM299.213 25.3636V53H294.166L282.143 35.6058H281.94V53H276.097V25.3636H281.225L293.154 42.7443H293.397V25.3636H299.213ZM304.041 53V25.3636H322.339V30.1811H309.884V36.7663H321.124V41.5838H309.884V53H304.041ZM326.269 53V25.3636H344.891V30.1811H332.112V36.7663H343.933V41.5838H332.112V48.1825H344.945V53H326.269ZM372.653 25.3636V53H367.606L355.582 35.6058H355.38V53H349.537V25.3636H354.665L366.594 42.7443H366.836V25.3636H372.653ZM383.323 25.3636V53H377.48V25.3636H383.323Z" fill="#082C6A"/>
</svg>
